<svg width="36" height="36" viewBox="0 0 36 36" fill="none" xmlns="http://www.w3.org/2000/svg">
<g clip-path="url(#clip0_29_1050)">
<path fill-rule="evenodd" clip-rule="evenodd" d="M17.9464 0C8.02249 0 0 8.25 0 18.4564C0 26.6149 5.14029 33.5209 12.2712 35.9651C13.1628 36.1489 13.4893 35.568 13.4893 35.0794C13.4893 34.6515 13.46 33.1849 13.46 31.6567C8.46771 32.757 7.42812 29.4566 7.42812 29.4566C6.62584 27.3176 5.4371 26.7679 5.4371 26.7679C3.80314 25.6372 5.55612 25.6372 5.55612 25.6372C7.36861 25.7595 8.31967 27.5317 8.31967 27.5317C9.92388 30.3427 12.5089 29.5485 13.5489 29.0595C13.6973 27.8677 14.173 27.0427 14.6781 26.5845C10.6964 26.1566 6.50718 24.5678 6.50718 17.4784C6.50718 15.4616 7.21984 13.8116 8.34906 12.5284C8.1709 12.0701 7.54678 10.1753 8.52759 7.63913C8.52759 7.63913 10.0429 7.15013 13.4596 9.53363C14.9224 9.12962 16.431 8.92411 17.9464 8.92237C19.4617 8.92237 21.0064 9.1365 22.4328 9.53363C25.8498 7.15013 27.3651 7.63913 27.3651 7.63913C28.346 10.1753 27.7215 12.0701 27.5433 12.5284C28.7023 13.8116 29.3856 15.4616 29.3856 17.4784C29.3856 24.5678 25.1963 26.1259 21.1849 26.5845C21.8388 27.165 22.403 28.2649 22.403 30.0067C22.403 32.4817 22.3736 34.4681 22.3736 35.079C22.3736 35.568 22.7006 36.1489 23.5918 35.9655C30.7227 33.5205 35.863 26.6149 35.863 18.4564C35.8924 8.25 27.8405 0 17.9464 0Z" fill="#C9D1D9" fill-opacity="0.3"/>
</g>
<defs>
<clipPath id="clip0_29_1050">
<rect width="36" height="36" fill="white"/>
</clipPath>
</defs>
</svg>
