<svg width="36" height="36" viewBox="0 0 36 36" fill="none" xmlns="http://www.w3.org/2000/svg">
<g clip-path="url(#clip0_29_1137)">
<path d="M19.423 17.7316C18.9752 17.8811 18.4974 17.9642 18 17.9642C17.5026 17.9642 17.0248 17.8811 16.5769 17.7316C13.3234 18.2659 11.6206 20.6571 11.6206 23.5589H18H24.3793C24.3793 20.6571 22.6768 18.2659 19.423 17.7316Z" fill="#C9D1D9" fill-opacity="0.3"/>
<path d="M17.9999 16.9303C19.9286 16.9303 21.4915 15.3666 21.4915 13.4382V12.4477C21.4915 10.5193 19.9286 8.95605 17.9999 8.95605C16.0712 8.95605 14.5083 10.5193 14.5083 12.4477V13.4382C14.5083 15.3666 16.0712 16.9303 17.9999 16.9303Z" fill="#C9D1D9" fill-opacity="0.3"/>
<path d="M26.6061 0H9.39234C6.06318 0 3.35376 2.70998 3.35376 6.03977V29.9615C3.35376 33.2913 6.06318 36 9.39234 36H23.8553H24.7816L25.4368 35.346L31.992 28.7909L32.6459 28.1363V27.21V6.03977C32.6459 2.70998 29.9365 0 26.6061 0ZM30.4098 27.2099H27.0245C25.2749 27.2099 23.8552 28.629 23.8552 30.3791V33.7639H9.39234C7.29239 33.7639 5.58998 32.0608 5.58998 29.9615V6.03977C5.58998 3.93926 7.29239 2.23615 9.39234 2.23615H26.6061C28.7068 2.23615 30.4097 3.93926 30.4097 6.03977V27.2099H30.4098Z" fill="#C9D1D9" fill-opacity="0.3"/>
</g>
<defs>
<clipPath id="clip0_29_1137">
<rect width="36" height="36" fill="white"/>
</clipPath>
</defs>
</svg>
