<svg width="36" height="37" viewBox="0 0 36 37" fill="none" xmlns="http://www.w3.org/2000/svg">
<g clip-path="url(#clip0_29_763)">
<path d="M12.8827 5.21743H9.10274C6.75051 5.21743 5.57353 5.21743 4.6751 5.67521C3.88481 6.07786 3.24276 6.71992 2.8401 7.51021C2.38232 8.40863 2.38232 9.58562 2.38232 11.9379V27.8979C2.38232 30.2501 2.38232 31.4256 2.8401 32.324C3.24276 33.1142 3.88481 33.7575 4.6751 34.16C5.57264 34.6174 6.7482 34.6174 9.09583 34.6174H25.0688C27.4164 34.6174 28.5903 34.6174 29.4879 34.16C30.2781 33.7575 30.9224 33.1136 31.3249 32.3234C31.7823 31.4259 31.7823 30.2515 31.7823 27.9039V24.1174M33.8823 13.6174V3.11743M33.8823 3.11743H23.3823M33.8823 3.11743L19.1823 17.8174" stroke="#C9D1D9" stroke-opacity="0.3" stroke-width="4.2" stroke-linecap="round" stroke-linejoin="round"/>
</g>
<defs>
<clipPath id="clip0_29_763">
<rect width="36" height="36" fill="white" transform="translate(0 0.734985)"/>
</clipPath>
</defs>
</svg>
